<?xml version="1.0" encoding="UTF-8"?>
<!DOCTYPE svg PUBLIC "-//W3C//DTD SVG 1.1//EN" "http://www.w3.org/Graphics/SVG/1.1/DTD/svg11.dtd">
<!-- Creator: CorelDRAW (Versión de evaluación) -->
<svg xmlns="http://www.w3.org/2000/svg" xml:space="preserve" width="75.9532mm" height="47.8307mm" version="1.1" style="shape-rendering:geometricPrecision; text-rendering:geometricPrecision; image-rendering:optimizeQuality; fill-rule:evenodd; clip-rule:evenodd"
viewBox="0 0 1000.28 629.92"
 xmlns:xlink="http://www.w3.org/1999/xlink"
 xmlns:xodm="http://www.corel.com/coreldraw/odm/2003">
 <defs>
  <style type="text/css">
   <![CDATA[
    .fil0 {fill:none}
    .fil1 {fill:#E87F8A;fill-rule:nonzero;fill-opacity:0.149020}
   ]]>
  </style>
 </defs>
 <g id="Capa_x0020_1">
  <metadata id="CorelCorpID_0Corel-Layer"/>
  <polygon class="fil0" points="-0,313.96 331.03,313.96 331.03,627.57 -0,627.57 "/>
  <path class="fil1" d="M119.64 481.42l12.97 -18.15 16.87 35.39c-1.47,0.96 -2.91,2.06 -4.31,3.31 -1.4,1.25 -2.66,2.59 -3.78,4.02l-10.57 -22.17 -5.68 7.92c-0.85,1.18 -1.98,1.91 -3.39,2.2 -1.41,0.28 -2.7,0 -3.88,-0.85l-25.92 -17.94c-1.18,-0.85 -1.91,-1.98 -2.2,-3.39 -0.29,-1.41 -0,-2.7 0.85,-3.88l24.43 -35.39c0.8,-1.28 1.77,-2.42 2.91,-3.41 1.14,-0.99 2.39,-1.81 3.75,-2.46 1.26,-0.6 2.56,-0.77 3.91,-0.51 1.34,0.26 2.55,0.84 3.63,1.74 3.68,3.14 7.65,5.52 11.91,7.16 4.26,1.64 8.43,1.48 12.52,-0.47 4.09,-1.95 6.84,-5.09 8.24,-9.43 1.41,-4.34 2.05,-8.92 1.93,-13.76 -0.03,-1.4 0.31,-2.72 1.01,-3.95 0.7,-1.23 1.68,-2.15 2.94,-2.75 1.36,-0.65 2.76,-1.09 4.19,-1.32 1.43,-0.23 2.9,-0.26 4.4,-0.07l42.88 3.3c1.4,0.23 2.56,0.9 3.47,2.01 0.92,1.11 1.33,2.39 1.25,3.84l-2.3 31.21c-0.08,1.45 -0.67,2.64 -1.78,3.55 -1.11,0.91 -2.39,1.33 -3.84,1.25l-9.73 -0.57 16.19 33.97 -5.61 12.52 -27.67 -58.03 22.42 1.28 1.48 -20.78 -37.81 -3.2c-0.08,6.86 -1.65,13.01 -4.71,18.46 -3.06,5.45 -7.22,9.42 -12.46,11.92 -5.14,2.45 -10.81,3.16 -17.03,2.13 -6.21,-1.03 -12.01,-3.67 -17.39,-7.92l-21.48 31.47 17.39 11.78zm44.19 33.17c-1.99,0.95 -3.77,2.15 -5.33,3.6 -1.56,1.45 -2.77,3.16 -3.64,5.11l-5.29 11.98c-0.65,1.34 -1.65,2.27 -3.01,2.79 -1.36,0.52 -2.71,0.46 -4.05,-0.19 -1.34,-0.65 -2.27,-1.65 -2.79,-3.01 -0.52,-1.36 -0.46,-2.71 0.19,-4.05l5.28 -11.59c1.46,-3.14 3.41,-5.94 5.85,-8.39 2.44,-2.45 5.18,-4.39 8.22,-5.84 3.04,-1.45 6.25,-2.34 9.63,-2.66 3.38,-0.33 6.75,-0.07 10.12,0.77l25.67 6.87c2.07,0.56 4.16,0.69 6.27,0.39 2.11,-0.3 4.16,-0.92 6.15,-1.87 1.89,-0.9 3.64,-2.09 5.25,-3.56 1.61,-1.48 2.85,-3.19 3.72,-5.15l5.05 -11.67c0.54,-1.29 1.52,-2.21 2.94,-2.75 1.41,-0.54 2.82,-0.57 4.21,-0.08 1.39,0.49 2.34,1.46 2.83,2.9 0.49,1.44 0.41,2.83 -0.23,4.16l-5.28 11.59c-1.46,3.14 -3.4,5.9 -5.81,8.27 -2.41,2.37 -5.13,4.28 -8.17,5.73 -3.04,1.45 -6.27,2.38 -9.68,2.78 -3.41,0.4 -6.8,0.19 -10.16,-0.66l-25.51 -6.95c-2.07,-0.56 -4.18,-0.68 -6.34,-0.35 -2.16,0.32 -4.19,0.94 -6.07,1.83zm-5.69 -70.63z"/>
  <polygon class="fil0" points="336.61,0 667.63,0 667.63,313.6 336.61,313.6 "/>
  <path class="fil1" d="M456.24 167.46l12.97 -18.15 16.87 35.39c-1.47,0.96 -2.91,2.06 -4.31,3.31 -1.4,1.25 -2.66,2.59 -3.78,4.02l-10.57 -22.17 -5.68 7.92c-0.85,1.18 -1.98,1.91 -3.39,2.2 -1.41,0.28 -2.7,0 -3.88,-0.85l-25.92 -17.94c-1.18,-0.85 -1.91,-1.98 -2.2,-3.39 -0.29,-1.41 -0,-2.7 0.85,-3.88l24.43 -35.39c0.8,-1.28 1.77,-2.42 2.91,-3.41 1.14,-0.99 2.39,-1.81 3.75,-2.46 1.26,-0.6 2.56,-0.77 3.91,-0.51 1.34,0.26 2.55,0.84 3.63,1.74 3.68,3.14 7.65,5.52 11.91,7.16 4.26,1.64 8.43,1.48 12.52,-0.47 4.09,-1.95 6.84,-5.09 8.24,-9.43 1.41,-4.34 2.05,-8.92 1.93,-13.76 -0.03,-1.4 0.31,-2.72 1.01,-3.95 0.7,-1.23 1.68,-2.15 2.94,-2.75 1.36,-0.65 2.76,-1.09 4.19,-1.32 1.43,-0.23 2.9,-0.26 4.4,-0.07l42.88 3.3c1.4,0.23 2.56,0.9 3.47,2.01 0.92,1.11 1.33,2.39 1.25,3.84l-2.3 31.21c-0.08,1.45 -0.67,2.64 -1.78,3.55 -1.11,0.91 -2.39,1.33 -3.84,1.25l-9.73 -0.57 16.19 33.97 -5.61 12.52 -27.67 -58.03 22.42 1.28 1.48 -20.78 -37.81 -3.2c-0.08,6.86 -1.65,13.01 -4.71,18.46 -3.06,5.45 -7.22,9.42 -12.46,11.92 -5.14,2.45 -10.81,3.16 -17.03,2.13 -6.21,-1.03 -12.01,-3.67 -17.39,-7.92l-21.48 31.47 17.39 11.78zm44.19 33.17c-1.99,0.95 -3.77,2.15 -5.33,3.6 -1.56,1.45 -2.77,3.16 -3.64,5.11l-5.29 11.98c-0.65,1.34 -1.65,2.27 -3.01,2.79 -1.36,0.52 -2.71,0.46 -4.05,-0.19 -1.34,-0.65 -2.27,-1.65 -2.79,-3.01 -0.52,-1.36 -0.46,-2.71 0.19,-4.05l5.28 -11.59c1.46,-3.14 3.41,-5.94 5.85,-8.39 2.44,-2.45 5.18,-4.39 8.22,-5.84 3.04,-1.45 6.25,-2.34 9.63,-2.66 3.38,-0.33 6.75,-0.07 10.12,0.77l25.67 6.87c2.07,0.56 4.16,0.69 6.27,0.39 2.11,-0.3 4.16,-0.92 6.15,-1.87 1.89,-0.9 3.64,-2.09 5.25,-3.56 1.61,-1.48 2.85,-3.19 3.72,-5.15l5.05 -11.67c0.54,-1.29 1.52,-2.21 2.94,-2.75 1.41,-0.54 2.82,-0.57 4.21,-0.08 1.39,0.49 2.34,1.46 2.83,2.9 0.49,1.44 0.41,2.83 -0.23,4.16l-5.28 11.59c-1.46,3.14 -3.4,5.9 -5.81,8.27 -2.41,2.37 -5.13,4.28 -8.17,5.73 -3.04,1.45 -6.27,2.38 -9.68,2.78 -3.41,0.4 -6.8,0.19 -10.16,-0.66l-25.51 -6.95c-2.07,-0.56 -4.18,-0.68 -6.34,-0.35 -2.16,0.32 -4.19,0.94 -6.07,1.83zm-5.69 -70.63z"/>
  <polygon class="fil0" points="669.26,316.31 1000.28,316.31 1000.28,629.92 669.26,629.92 "/>
  <path class="fil1" d="M788.89 483.77l12.97 -18.15 16.87 35.39c-1.47,0.96 -2.91,2.06 -4.31,3.31 -1.4,1.25 -2.66,2.59 -3.78,4.02l-10.57 -22.17 -5.68 7.92c-0.85,1.18 -1.98,1.91 -3.39,2.2 -1.41,0.28 -2.7,0 -3.88,-0.85l-25.92 -17.94c-1.18,-0.85 -1.91,-1.98 -2.2,-3.39 -0.29,-1.41 -0,-2.7 0.85,-3.88l24.43 -35.39c0.8,-1.28 1.77,-2.42 2.91,-3.41 1.14,-0.99 2.39,-1.81 3.75,-2.46 1.26,-0.6 2.56,-0.77 3.91,-0.51 1.34,0.26 2.55,0.84 3.63,1.74 3.68,3.14 7.65,5.52 11.91,7.16 4.26,1.64 8.43,1.48 12.52,-0.47 4.09,-1.95 6.84,-5.09 8.24,-9.43 1.41,-4.34 2.05,-8.92 1.93,-13.76 -0.03,-1.4 0.31,-2.72 1.01,-3.95 0.7,-1.23 1.68,-2.15 2.94,-2.75 1.36,-0.65 2.76,-1.09 4.19,-1.32 1.43,-0.23 2.9,-0.26 4.4,-0.07l42.88 3.3c1.4,0.23 2.56,0.9 3.47,2.01 0.92,1.11 1.33,2.39 1.25,3.84l-2.3 31.21c-0.08,1.45 -0.67,2.64 -1.78,3.55 -1.11,0.91 -2.39,1.33 -3.84,1.25l-9.73 -0.57 16.19 33.97 -5.61 12.52 -27.67 -58.03 22.42 1.28 1.48 -20.78 -37.81 -3.2c-0.08,6.86 -1.65,13.01 -4.71,18.46 -3.06,5.45 -7.22,9.42 -12.46,11.92 -5.14,2.45 -10.81,3.16 -17.03,2.13 -6.21,-1.03 -12.01,-3.67 -17.39,-7.92l-21.48 31.47 17.39 11.78zm44.19 33.17c-1.99,0.95 -3.77,2.15 -5.33,3.6 -1.56,1.45 -2.77,3.16 -3.64,5.11l-5.29 11.98c-0.65,1.34 -1.65,2.27 -3.01,2.79 -1.36,0.52 -2.71,0.46 -4.05,-0.19 -1.34,-0.65 -2.27,-1.65 -2.79,-3.01 -0.52,-1.36 -0.46,-2.71 0.19,-4.05l5.28 -11.59c1.46,-3.14 3.41,-5.94 5.85,-8.39 2.44,-2.45 5.18,-4.39 8.22,-5.84 3.04,-1.45 6.25,-2.34 9.63,-2.66 3.38,-0.33 6.75,-0.07 10.12,0.77l25.67 6.87c2.07,0.56 4.16,0.69 6.27,0.39 2.11,-0.3 4.16,-0.92 6.15,-1.87 1.89,-0.9 3.64,-2.09 5.25,-3.56 1.61,-1.48 2.85,-3.19 3.72,-5.15l5.05 -11.67c0.54,-1.29 1.52,-2.21 2.94,-2.75 1.41,-0.54 2.82,-0.57 4.21,-0.08 1.39,0.49 2.34,1.46 2.83,2.9 0.49,1.44 0.41,2.83 -0.23,4.16l-5.28 11.59c-1.46,3.14 -3.4,5.9 -5.81,8.27 -2.41,2.37 -5.13,4.28 -8.17,5.73 -3.04,1.45 -6.27,2.38 -9.68,2.78 -3.41,0.4 -6.8,0.19 -10.16,-0.66l-25.51 -6.95c-2.07,-0.56 -4.18,-0.68 -6.34,-0.35 -2.16,0.32 -4.19,0.94 -6.07,1.83zm-5.69 -70.63z"/>
 </g>
</svg>
